# xmcd
#
# Track frame offsets: 
#        150
#        31165
#        56215
#
# Disc length: 951 seconds
#
# Revision: 0
# Processed by: cddbd v1.5.2PL0 Copyright (c) Steve Scherf et al.
# Submitted via: ExactAudioCopy v0.99pb5
#
DISCID=2003b503
DTITLE=Bobby Brown - Don't Be Cruel
DYEAR=1989
DGENRE=Funk
TTITLE0=Don't Be Cruel (Extended Version)
TTITLE1=Don't Be Cruel (Dub)
TTITLE2=Don't Be Cruel (A Cappella)
EXTD=
EXTT0=
EXTT1=
EXTT2=
PLAYORDER=
